<mxfile host="app.diagrams.net" modified="2023-05-19T05:44:34.035Z" agent="Mozilla/5.0 (Windows NT 10.0; Win64; x64) AppleWebKit/537.36 (KHTML, like Gecko) Chrome/113.0.0.0 Safari/537.36 Edg/113.0.1774.42" etag="1-n0pKko8Ht1JfXKG0qO" version="21.3.2" type="github">
  <diagram name="第 1 页" id="OA3pAKLKVWmn0xVMD_9B">
    <mxGraphModel dx="1050" dy="541" grid="1" gridSize="10" guides="1" tooltips="1" connect="1" arrows="1" fold="1" page="1" pageScale="1" pageWidth="827" pageHeight="1169" math="0" shadow="0">
      <root>
        <mxCell id="0" />
        <mxCell id="1" parent="0" />
        <mxCell id="3fpWKVBbXzlbemhTmLYo-3" value="" style="verticalLabelPosition=bottom;sketch=0;aspect=fixed;html=1;verticalAlign=top;strokeColor=none;align=center;outlineConnect=0;shape=mxgraph.citrix.database;" vertex="1" parent="1">
          <mxGeometry x="1171" y="330" width="42.5" height="50" as="geometry" />
        </mxCell>
        <mxCell id="3fpWKVBbXzlbemhTmLYo-4" value="" style="verticalLabelPosition=bottom;sketch=0;aspect=fixed;html=1;verticalAlign=top;strokeColor=none;align=center;outlineConnect=0;shape=mxgraph.citrix.desktop_web;" vertex="1" parent="1">
          <mxGeometry x="681" y="297" width="76.5" height="90" as="geometry" />
        </mxCell>
        <mxCell id="3fpWKVBbXzlbemhTmLYo-5" value="" style="verticalLabelPosition=bottom;sketch=0;aspect=fixed;html=1;verticalAlign=top;strokeColor=none;align=center;outlineConnect=0;shape=mxgraph.citrix.1u_2u_server;" vertex="1" parent="1">
          <mxGeometry x="891" y="318.9" width="100" height="39.1" as="geometry" />
        </mxCell>
        <mxCell id="3fpWKVBbXzlbemhTmLYo-7" value="Nginx" style="text;html=1;align=center;verticalAlign=middle;resizable=0;points=[];autosize=1;strokeColor=none;fillColor=none;" vertex="1" parent="1">
          <mxGeometry x="686.25" y="272" width="50" height="30" as="geometry" />
        </mxCell>
        <mxCell id="3fpWKVBbXzlbemhTmLYo-8" value="" style="verticalLabelPosition=bottom;sketch=0;aspect=fixed;html=1;verticalAlign=top;strokeColor=none;align=center;outlineConnect=0;shape=mxgraph.citrix.thin_client;" vertex="1" parent="1">
          <mxGeometry x="485.5" y="269" width="71" height="71" as="geometry" />
        </mxCell>
        <mxCell id="3fpWKVBbXzlbemhTmLYo-9" value="Web浏览器" style="text;html=1;align=center;verticalAlign=middle;resizable=0;points=[];autosize=1;strokeColor=none;fillColor=none;" vertex="1" parent="1">
          <mxGeometry x="481" y="219" width="80" height="30" as="geometry" />
        </mxCell>
        <mxCell id="3fpWKVBbXzlbemhTmLYo-11" value="配置服务&lt;br&gt;（HTTP Restful）" style="text;html=1;align=center;verticalAlign=middle;resizable=0;points=[];autosize=1;strokeColor=none;fillColor=none;" vertex="1" parent="1">
          <mxGeometry x="881" y="273" width="120" height="40" as="geometry" />
        </mxCell>
        <mxCell id="3fpWKVBbXzlbemhTmLYo-12" value="数据库&lt;br&gt;（Mysql）" style="text;html=1;align=center;verticalAlign=middle;resizable=0;points=[];autosize=1;strokeColor=none;fillColor=none;" vertex="1" parent="1">
          <mxGeometry x="1161" y="280" width="80" height="40" as="geometry" />
        </mxCell>
        <mxCell id="3fpWKVBbXzlbemhTmLYo-13" value="" style="verticalLabelPosition=bottom;sketch=0;aspect=fixed;html=1;verticalAlign=top;strokeColor=none;align=center;outlineConnect=0;shape=mxgraph.citrix.1u_2u_server;" vertex="1" parent="1">
          <mxGeometry x="891" y="453.9" width="100" height="39.1" as="geometry" />
        </mxCell>
        <mxCell id="3fpWKVBbXzlbemhTmLYo-14" value="实时数据服务服务&lt;br&gt;（WebSocket）" style="text;html=1;align=center;verticalAlign=middle;resizable=0;points=[];autosize=1;strokeColor=none;fillColor=none;" vertex="1" parent="1">
          <mxGeometry x="881" y="408" width="120" height="40" as="geometry" />
        </mxCell>
        <mxCell id="3fpWKVBbXzlbemhTmLYo-15" value="" style="endArrow=classic;startArrow=classic;html=1;rounded=0;exitX=1.063;exitY=0.634;exitDx=0;exitDy=0;exitPerimeter=0;" edge="1" parent="1" source="3fpWKVBbXzlbemhTmLYo-8" target="3fpWKVBbXzlbemhTmLYo-4">
          <mxGeometry width="50" height="50" relative="1" as="geometry">
            <mxPoint x="561" y="370" as="sourcePoint" />
            <mxPoint x="611" y="320" as="targetPoint" />
          </mxGeometry>
        </mxCell>
        <mxCell id="3fpWKVBbXzlbemhTmLYo-17" value="" style="endArrow=classic;startArrow=classic;html=1;rounded=0;entryX=0;entryY=0.284;entryDx=0;entryDy=0;entryPerimeter=0;" edge="1" parent="1" target="3fpWKVBbXzlbemhTmLYo-5">
          <mxGeometry width="50" height="50" relative="1" as="geometry">
            <mxPoint x="761" y="340" as="sourcePoint" />
            <mxPoint x="871" y="360" as="targetPoint" />
          </mxGeometry>
        </mxCell>
        <mxCell id="3fpWKVBbXzlbemhTmLYo-18" value="" style="endArrow=classic;startArrow=classic;html=1;rounded=0;" edge="1" parent="1">
          <mxGeometry width="50" height="50" relative="1" as="geometry">
            <mxPoint x="741" y="390" as="sourcePoint" />
            <mxPoint x="881" y="460" as="targetPoint" />
          </mxGeometry>
        </mxCell>
        <mxCell id="3fpWKVBbXzlbemhTmLYo-19" value="" style="endArrow=classic;startArrow=classic;html=1;rounded=0;" edge="1" parent="1" source="3fpWKVBbXzlbemhTmLYo-5">
          <mxGeometry width="50" height="50" relative="1" as="geometry">
            <mxPoint x="1001" y="351" as="sourcePoint" />
            <mxPoint x="1161" y="350" as="targetPoint" />
          </mxGeometry>
        </mxCell>
        <mxCell id="3fpWKVBbXzlbemhTmLYo-20" value="" style="endArrow=classic;startArrow=classic;html=1;rounded=0;" edge="1" parent="1" target="3fpWKVBbXzlbemhTmLYo-3">
          <mxGeometry width="50" height="50" relative="1" as="geometry">
            <mxPoint x="1001" y="470" as="sourcePoint" />
            <mxPoint x="1051" y="460" as="targetPoint" />
          </mxGeometry>
        </mxCell>
        <mxCell id="3fpWKVBbXzlbemhTmLYo-31" value="HTTP&lt;br&gt;WebSocket" style="text;html=1;align=center;verticalAlign=middle;resizable=0;points=[];autosize=1;strokeColor=none;fillColor=none;" vertex="1" parent="1">
          <mxGeometry x="571" y="330" width="80" height="40" as="geometry" />
        </mxCell>
      </root>
    </mxGraphModel>
  </diagram>
</mxfile>
